<?xml version="1.0" standalone="no"?> <!DOCTYPE svg PUBLIC "-//W3C//DTD SVG 1.0//EN" "http://www.w3.org/TR/2001/REC-SVG-20010904/DTD/svg10.dtd" > <svg xmlns="http://www.w3.org/2000/svg" width="100%" height="100%">
<defs >
<font id="Nouveau_IBM" horiz-adv-x="556" ><font-face
    font-family="Nouveau IBM"
    units-per-em="1024"
    panose-1="2 0 6 9 0 0 0 0 0 0"
    ascent="768"
    descent="-256"
    alphabetic="0" />
<missing-glyph d="M34 0V682H306V0H34ZM68 34H272V648H68V34Z" />
<glyph unicode=" " glyph-name="space" />
<glyph unicode="!" glyph-name="exclam" d="M320 0H192V128H320V0ZM384 416L320 352V192H192V352L128 416V544L224 640H288L384 544V416Z" />
<glyph unicode="&quot;" glyph-name="quotedbl" d="M192 448H160L64 544V704H192V448ZM448 544L352 448H320V704H448V544Z" />
<glyph unicode="#" glyph-name="numbersign" d="M256 384H192V192H256V384ZM448 384H384V192H448V128H384V0H256V128H192V0H64V128H0V192H64V384H0V448H64V576H192V448H256V576H384V448H448V384Z" />
<glyph unicode="$" glyph-name="dollar" d="M448 448H416L288 576H144L128 560V384H352L448 288V96L352 0H320V-128H192V0H96L0 96V192H64V160L160 64H304L320 79V320H96L0 416V544L96 640H192V768H320V640H352L448 544V448Z" />
<glyph unicode="%" glyph-name="percent" d="M128 384H0V512H128V384ZM448 0H320V128H448V0ZM448 416L32 0H0V112L400 512H448V416Z" />
<glyph unicode="&amp;" glyph-name="ampersand" d="M256 224L160 320H128V64H226L256 96V224ZM256 576H192V448H256V576ZM448 352L384 288V64H448V0H352L288 64L224 0H96L0 96V288L128 416L64 480V544L160 640H288L384 544V480L256 352L288 320L352 384H448V352Z" />
<glyph unicode="&apos;" glyph-name="quotesingle" d="M320 544L224 448H128V512H158L192 544V704H320V544Z" />
<glyph unicode="(" glyph-name="parenleft" d="M384 608L256 480V160L384 32V0H288L128 160V480L288 640H384V608Z" />
<glyph unicode=")" glyph-name="parenright" d="M384 160L224 0H128V32L256 160V480L128 608V640H224L384 480V160Z" />
<glyph unicode="*" glyph-name="asterisk" d="M512 256H384V224L448 160V128H352L288 192H224L160 128H64V160L128 224V256H0V320H128V352L64 416V448H160L224 384H288L352 448H448V416L384 352V320H512V256Z" />
<glyph unicode="+" glyph-name="plus" d="M448 256H320V128H192V256H64V320H192V448H320V320H448V256Z" />
<glyph unicode="," glyph-name="comma" d="M320 32L224 -64H128V-32L192 32V192H320V32Z" />
<glyph unicode="-" glyph-name="hyphen" d="M448 256H0V320H448V256Z" />
<glyph unicode="." glyph-name="period" d="M320 0H192V128H320V0Z" />
<glyph unicode="/" glyph-name="slash" d="M448 416L32 0H0V112L400 512H448V416Z" />
<glyph unicode="0" glyph-name="zero" d="M320 256H192V384H320V256ZM384 480L288 576H224L128 480V160L224 64H288L384 160V480ZM512 160L352 0H160L0 160V480L160 640H352L512 480V160Z" />
<glyph unicode="1" glyph-name="one" d="M448 0H64V64H192V448H64V480L224 640H320V64H448V0Z" />
<glyph unicode="2" glyph-name="two" d="M448 480L128 160V64H320V128H448V0H0V160L320 480V576H128V512H0V544L96 640H352L448 544V480Z" />
<glyph unicode="3" glyph-name="three" d="M448 416L384 352L448 288V96L352 0H96L0 96V128H128V64H320V320H128V384H320V576H128V512H0V544L96 640H352L448 544V416Z" />
<glyph unicode="4" glyph-name="four" d="M256 480L128 352V320H256V480ZM448 256H384V64H448V0H192V64H256V256H0V352L288 640H384V320H448V256Z" />
<glyph unicode="5" glyph-name="five" d="M448 576H128V384H352L448 288V96L352 0H96L0 96V128H128V64H320V320H0V640H448V576Z" />
<glyph unicode="6" glyph-name="six" d="M320 320H128V64H320V320ZM448 96L352 0H96L0 96V480L160 640H320V576H224L128 480V384H352L448 288V96Z" />
<glyph unicode="7" glyph-name="seven" d="M448 416L256 224V0H128V224L320 416V576H128V512H0V640H448V416Z" />
<glyph unicode="8" glyph-name="eight" d="M320 320H128V64H320V320ZM320 576H128V384H320V576ZM448 416L384 352L448 288V96L352 0H96L0 96V288L64 352L0 416V544L96 640H352L448 544V416Z" />
<glyph unicode="9" glyph-name="nine" d="M320 576H128V384H320V576ZM448 160L288 0H64V64H224L320 160V320H96L0 416V544L96 640H352L448 544V160Z" />
<glyph unicode=":" glyph-name="colon" d="M320 64H192V192H320V64ZM320 384H192V512H320V384Z" />
<glyph unicode=";" glyph-name="semicolon" d="M320 96L224 0H128V32L192 96V192H320V96ZM320 384H192V512H320V384Z" />
<glyph unicode="&lt;" glyph-name="less" d="M448 544L192 288L448 32V0H352L64 288L352 576H448V544Z" />
<glyph unicode="=" glyph-name="equal" d="M448 192H0V256H448V192ZM448 384H0V448H448V384Z" />
<glyph unicode="&gt;" glyph-name="greater" d="M448 288L160 0H64V32L320 288L64 544V576H160L448 288Z" />
<glyph unicode="?" glyph-name="question" d="M320 0H192V128H320V0ZM448 480L320 352V192H192V352L320 480V576H128V448H0V544L96 640H352L448 544V480Z" />
<glyph unicode="@" glyph-name="at" d="M448 224L352 128H192V384H320V512H128V64H384V0H96L0 96V480L96 576H352L448 480V224Z" />
<glyph unicode="A" glyph-name="A" d="M320 432L224 528L128 432V320H320V432ZM448 0H320V256H128V0H0V432L224 656L448 432V0Z" />
<glyph unicode="B" glyph-name="B" d="M320 320H192V64H320V320ZM320 576H192V384H320V576ZM448 400L368 352L448 304V80L368 0H0V64H64V576H0V640H368L448 560V400Z" />
<glyph unicode="C" glyph-name="C" d="M448 448H416L288 576H224L128 480V160L224 64H288L384 160V192H448V96L352 0H160L0 160V480L160 640H352L448 544V448Z" />
<glyph unicode="D" glyph-name="D" d="M320 480L224 576H192V64H224L320 160V480ZM448 160L288 0H0V64H64V576H0V640H288L448 480V160Z" />
<glyph unicode="E" glyph-name="E" d="M448 448H416L288 576H192V384H224L256 416V448H320V256H256V288L224 320H192V64H272L400 192H448V0H0V64H64V576H0V640H448V448Z" />
<glyph unicode="F" glyph-name="F" d="M448 448H416L288 576H192V384H224L256 416V448H320V256H256V288L224 320H192V64H256V0H0V64H64V576H0V640H448V448Z" />
<glyph unicode="G" glyph-name="G" d="M448 0H384V64H352L288 0H160L0 160V480L160 640H352L448 544V448H416L288 576H224L128 480V160L224 64H272L320 112V256H192V320H448V0Z" />
<glyph unicode="H" glyph-name="H" d="M448 0H320V320H128V0H0V640H128V384H320V640H448V0Z" />
<glyph unicode="I" glyph-name="I" d="M384 576H320V64H384V0H128V64H192V576H128V640H384V576Z" />
<glyph unicode="J" glyph-name="J" d="M448 576H384V96L288 0H96L0 96V256H128V64H256V576H192V640H448V576Z" />
<glyph unicode="K" glyph-name="K" d="M448 480L288 320L448 160V0H320V160L224 256H192V0H0V64H64V576H0V640H192V384H224L320 480V640H448V480Z" />
<glyph unicode="L" glyph-name="L" d="M448 0H0V64H64V576H0V640H256V576H192V64H272L400 192H448V0Z" />
<glyph unicode="M" glyph-name="M" d="M512 0H384V416L288 320H224L128 416V0H0V640H96L224 512H288L416 640H512V0Z" />
<glyph unicode="N" glyph-name="N" d="M448 0H320V224L128 416V0H0V640H128V608L320 416V640H448V0Z" />
<glyph unicode="O" glyph-name="O" d="M320 576H128V64H320V576ZM448 96L352 0H96L0 96V544L96 640H352L448 544V96Z" />
<glyph unicode="P" glyph-name="P" d="M320 576H192V384H320V576ZM448 416L352 320H192V64H256V0H0V64H64V576H0V640H352L448 544V416Z" />
<glyph unicode="Q" glyph-name="Q" d="M320 576H128V64H224L192 96V192H256V160L320 96V576ZM448 96L416 64H384V-32L415 -64L448 -93V-128H320L256 -64V-29L227 0H96L0 96V544L96 640H352L448 544V96Z" />
<glyph unicode="R" glyph-name="R" d="M320 576H192V384H320V576ZM448 416L352 320L448 224V0H320V224L224 320H192V0H0V64H64V576H0V640H352L448 544V416Z" />
<glyph unicode="S" glyph-name="S" d="M448 448H320V544L288 576H160L128 545V480L224 384H288L448 224V96L352 0H96L0 96V192H128V95L160 64H288L320 98V224L224 320H160L0 480V544L96 640H352L448 544V448Z" />
<glyph unicode="T" glyph-name="T" d="M512 448H480L352 576H320V64H384V0H128V64H192V576H160L32 448H0V640H512V448Z" />
<glyph unicode="U" glyph-name="U" d="M448 96L352 0H96L0 96V640H128V64H320V640H448V96Z" />
<glyph unicode="V" glyph-name="V" d="M512 224L288 0H224L0 224V640H128V224L224 128H288L384 224V640H512V224Z" />
<glyph unicode="W" glyph-name="W" d="M512 192L448 64V0H320V64L288 128H224L192 64V0H64V64L0 192V640H128V192H176L192 256V320H320V256L336 192H384V640H512V192Z" />
<glyph unicode="X" glyph-name="X" d="M512 544L320 352V288L512 96V0H384V96L288 192H224L128 96V0H0V96L192 288V352L0 544V640H128V544L224 448H288L384 544V640H512V544Z" />
<glyph unicode="Y" glyph-name="Y" d="M512 480L320 288V64H384V0H128V64H192V288L0 480V640H128V480L224 384H288L384 480V640H512V480Z" />
<glyph unicode="Z" glyph-name="Z" d="M512 544L128 160V64H336L464 192H512V0H0V160L384 544V576H160L32 448H0V640H512V544Z" />
<glyph unicode="[" glyph-name="bracketleft" d="M384 576H256V64H384V0H128V640H384V576Z" />
<glyph unicode="\" glyph-name="backslash" d="M448 0H416L0 416V576H48L448 176V0Z" />
<glyph unicode="]" glyph-name="bracketright" d="M384 0H128V64H256V576H128V640H384V0Z" />
<glyph unicode="^" glyph-name="asciicircum" d="M448 512H352L224 640L96 512H0V544L224 768L448 544V512Z" />
<glyph unicode="_" glyph-name="underscore" d="M512 -192H0V-128H512V-192Z" />
<glyph unicode="`" glyph-name="grave" d="M320 576H224L128 672V768H256V656L272 640H320V576Z" />
<glyph unicode="a" glyph-name="a" d="M256 256H128V64H208L256 112V256ZM448 0H352L288 64L224 0H96L0 96V224L96 320H256V384H64V448H288L384 352V82L400 64H448V0Z" />
<glyph unicode="b" glyph-name="b" d="M320 288L224 384H192V64H320V288ZM448 96L352 0H64V576H0V640H192V448H288L448 288V96Z" />
<glyph unicode="c" glyph-name="c" d="M448 320H352L288 384H128V64H288L352 128H448V96L352 0H96L0 96V352L96 448H352L448 352V320Z" />
<glyph unicode="d" glyph-name="d" d="M256 384H224L128 288V64H224L256 96V384ZM448 0H352L288 64L224 0H96L0 96V288L160 448H256V576H192V640H384V64H448V0Z" />
<glyph unicode="e" glyph-name="e" d="M320 384H128V320H320V384ZM448 256H128V64H288L352 128H448V96L352 0H96L0 96V352L96 448H352L448 352V256Z" />
<glyph unicode="f" glyph-name="f" d="M384 448H320V480L224 576H192V384H256V320H192V64H256V0H0V64H64V320H0V384H64V544L160 640H288L384 544V448Z" />
<glyph unicode="g" glyph-name="g" d="M256 352L224 384H128V64H256V352ZM448 384H384V-96L288 -192H96L0 -96V-64H96L160 -128H224L256 -96V0H96L0 96V352L96 448H224L288 384L352 448H448V384Z" />
<glyph unicode="h" glyph-name="h" d="M448 0H320V352L288 384L192 288V0H0V64H64V576H0V640H192V384L256 448H352L448 352V0Z" />
<glyph unicode="i" glyph-name="i" d="M320 512H192V640H320V512ZM384 0H128V64H192V384H128V448H320V64H384V0Z" />
<glyph unicode="j" glyph-name="j" d="M448 -96L352 -192H160L64 -96V0H192V-128H320V384H256V448H448V-96ZM448 512H320V640H448V512Z" />
<glyph unicode="k" glyph-name="k" d="M448 416L288 256L448 96V0H320V96L224 192H192V0H0V64H64V576H0V640H192V320H224L352 448H448V416Z" />
<glyph unicode="l" glyph-name="l" d="M384 0H128V64H192V576H128V640H320V64H384V0Z" />
<glyph unicode="m" glyph-name="m" d="M512 0H384V320H320V0H192V320H128V0H0V448H160L224 384H256L320 448H416L512 352V0Z" />
<glyph unicode="n" glyph-name="n" d="M192 0H64V384H0V448H96L160 384L224 448H352L448 352V0H320V384H224L192 352V0Z" />
<glyph unicode="o" glyph-name="o" d="M320 384H128V64H320V384ZM448 96L352 0H96L0 96V352L96 448H352L448 352V96Z" />
<glyph unicode="p" glyph-name="p" d="M320 384H224L192 352V64H304L320 81V384ZM448 96L352 0H192V-128H256V-192H0V-128H64V384H0V448H96L160 384L224 448H352L448 352V96Z" />
<glyph unicode="q" glyph-name="q" d="M224 384H128V64H256V351L224 384ZM448 384H384V-128H448V-192H192V-128H256V0H96L0 96V352L96 448H224L288 384L352 448H448V384Z" />
<glyph unicode="r" glyph-name="r" d="M448 256H320V352L288 384L192 288V64H256V0H0V64H64V384H0V448H96L160 384L224 448H352L448 352V256Z" />
<glyph unicode="s" glyph-name="s" d="M448 320H320V384H128V352L224 256H288L448 96L352 0H96L0 96V128H128V94L160 64H320V96L224 192H160L0 352L96 448H352L448 352V320Z" />
<glyph unicode="t" glyph-name="t" d="M448 96L352 0H224L128 96V384H0V448H128V544L224 640H256V448H384V384H256V64H288L352 128H448V96Z" />
<glyph unicode="u" glyph-name="u" d="M448 0H352L288 64L224 0H96L0 96V448H128V64H224L256 96V448H384V64H448V0Z" />
<glyph unicode="v" glyph-name="v" d="M512 224L288 0H224L0 224V448H128V224L224 128H288L384 224V448H512V224Z" />
<glyph unicode="w" glyph-name="w" d="M512 128L448 0H352L320 64H192L160 0H64L34 64L0 128V448H128V128H160L192 193V256H320V195L352 128H384V448H512V128Z" />
<glyph unicode="x" glyph-name="x" d="M512 416L320 224L512 32V0H416L288 128H224L96 0H0V32L192 224L0 416V448H96L224 320H288L416 448H512V416Z" />
<glyph unicode="y" glyph-name="y" d="M448 -32L288 -192H0V-128H224L320 -32V0H96L0 96V448H128V64H320V448H448V-32Z" />
<glyph unicode="z" glyph-name="z" d="M448 416L128 96V64H320V128H448V0H0V96L288 384H128V320H0V448H448V416Z" />
<glyph unicode="{" glyph-name="braceleft" d="M448 576H320V416L256 352L320 288V64H448V0H288L192 96V320H64V384H192V544L288 640H448V576Z" />
<glyph unicode="|" glyph-name="bar" d="M320 0H192V640H320V0Z" />
<glyph unicode="}" glyph-name="braceright" d="M448 320H320V96L224 0H64V64H192V288L256 352L192 416V576H64V640H224L320 544V384H448V320Z" />
<glyph unicode="~" glyph-name="asciitilde" d="M448 608L352 512H224L160 576L96 512H0V544L96 640H224L288 576L352 640H448V608Z" />
<glyph unicode="" glyph-name="uni007F" d="M320 288L224 384L128 288V128H320V288ZM448 64H0V288L224 512L448 288V64Z" />
</font>
</defs>
</svg>
